
<svg width="129" height="47" viewBox="0 0 129 47" fill="none" xmlns="http://www.w3.org/2000/svg">
<path d="M116.688 27.6554C116.688 29.4189 115.948 30.7001 114.929 30.7001C114.576 30.6714 114.248 30.5076 114.013 30.2427C113.457 29.6488 113.155 28.8625 113.169 28.05V27.906L113.147 27.7274C113.087 25.8486 113.771 24.0218 115.051 22.6436C115.535 22.1175 116.083 21.6545 116.682 21.2654L116.688 27.6554ZM128.006 12.6985C126.222 12.6973 124.441 12.8155 122.673 13.0524V4.23801H116.688C116.651 5.98454 115.929 7.64679 114.679 8.8686C113.429 10.0904 111.749 10.7746 109.999 10.7746C108.25 10.7746 106.57 10.0904 105.32 8.8686C104.069 7.64679 103.348 5.98454 103.31 4.23801H97.3377C97.3305 6.16119 97.7639 8.06052 98.6049 9.79068C99.4458 11.5208 100.672 13.0359 102.19 14.22C103.707 15.4041 105.476 16.2259 107.36 16.6224C109.245 17.0188 111.195 16.9795 113.062 16.5073C112.129 17.1567 111.274 17.9126 110.515 18.7595C109.369 20.0364 108.486 21.5263 107.917 23.144C107.349 24.7619 107.105 26.4759 107.2 28.1878C107.221 30.5313 108.148 32.7758 109.788 34.4525C110.457 35.1444 111.258 35.6966 112.143 36.0769C113.029 36.4569 113.981 36.6576 114.944 36.667C119.358 36.667 122.689 32.7893 122.689 27.646V19.1041C124.458 18.8116 126.248 18.668 128.04 18.675L128.006 12.6985Z" fill="white"/>
<path d="M86.8885 25.3967C85.2257 25.3963 83.6012 24.8969 82.2261 23.9632C80.8509 23.0296 79.7884 21.7049 79.1764 20.1609C78.5644 18.6169 78.4312 16.9248 78.794 15.3042C79.1567 13.6837 79.9988 12.2094 81.211 11.0726C82.9373 12.0493 84.8742 12.5951 86.8572 12.6639C88.8083 12.7014 93.46 12.4759 94.4984 9.44382C94.6717 8.9195 94.7163 8.36127 94.6284 7.81616C94.5404 7.27104 94.3227 6.75499 93.9933 6.31149C92.8013 4.63256 90.2292 3.65527 86.8885 3.62708C84.9786 3.62584 83.0903 4.03052 81.349 4.81424C80.0514 3.65477 78.8878 2.35409 77.8797 0.936401L73.6325 3.94971C74.6388 5.37076 75.7704 6.69896 77.014 7.91838C75.7204 9.32762 74.742 10.9957 74.144 12.8117C73.546 14.6277 73.342 16.55 73.5453 18.4508C73.7489 20.3517 74.3551 22.1875 75.324 23.8362C76.2929 25.485 77.6022 26.909 79.1648 28.0133C80.7273 29.1177 82.5075 29.8773 84.3868 30.2416C86.2661 30.6058 88.2015 30.5665 90.0644 30.1262C91.9273 29.6858 93.675 28.8544 95.1913 27.6874C96.7075 26.5204 97.9576 25.0444 98.8585 23.3576L94.2412 20.9458C93.541 22.2887 92.4852 23.414 91.1887 24.1989C89.8921 24.9837 88.4047 25.3981 86.8885 25.3967Z" fill="white"/>
<path d="M0 10.5027C0.00125921 11.5495 0.265182 12.5793 0.767654 13.498C1.27013 14.4168 1.99513 15.1951 2.87643 15.7618C1.99469 16.329 1.2694 17.1079 0.766903 18.0271C0.264408 18.9465 0.000735122 19.9769 0 21.0242V30.0203H2.01694V21.0242C2.01778 19.8968 2.4664 18.8159 3.2644 18.0183C4.0624 17.2209 5.14459 16.7722 6.27354 16.7704H8.7422V14.7565H6.27354C5.18541 14.6974 4.1613 14.2241 3.41193 13.4341C2.66256 12.644 2.24491 11.5972 2.24491 10.509C2.24491 9.42075 2.66256 8.37392 3.41193 7.58385C4.1613 6.79378 5.18541 6.32055 6.27354 6.26151H9.53266V4.23801H6.27354C4.6097 4.23803 3.01399 4.89805 1.83748 6.0729C0.660962 7.24776 0 8.8412 0 10.5027Z" fill="white"/>
<path d="M42.4994 22.039C42.5067 24.1362 43.3385 26.1467 44.8158 27.6371C46.2933 29.1277 48.2979 29.9791 50.3978 30.0077H52.2799L52.3175 26.1956H50.4354C49.3514 26.1608 48.3239 25.7048 47.5715 24.9247C46.8192 24.1448 46.4014 23.1023 46.407 22.0192C46.4128 20.9363 46.8416 19.8983 47.6021 19.1263C48.3628 18.3541 49.3951 17.909 50.4794 17.8856H52.3081V14.0736H49.3344C48.9302 14.0866 48.5274 14.0183 48.1501 13.8728C47.7729 13.7273 47.4287 13.5076 47.1381 13.2266C46.8475 12.9457 46.6165 12.6092 46.4587 12.2374C46.3008 11.8655 46.2196 11.4657 46.2196 11.0618C46.2196 10.6579 46.3008 10.2582 46.4587 9.88626C46.6165 9.51438 46.8475 9.17796 47.1381 8.89701C47.4287 8.61605 47.7729 8.3963 48.1501 8.25081C48.5274 8.10532 48.9302 8.03704 49.3344 8.05007H52.3834V4.23802H49.3375C47.933 4.23658 46.562 4.66772 45.4117 5.47266C44.2615 6.27761 43.3877 7.41719 42.9095 8.73609C42.4315 10.055 42.3723 11.489 42.7401 12.8427C43.1079 14.1964 43.8848 15.404 44.9649 16.3006C44.1868 17.0408 43.5672 17.9311 43.144 18.9175C42.7207 19.9039 42.5025 20.966 42.5025 22.039" fill="white"/>
<path d="M22.716 27.364H15.3917V4.23801H12.7317V30.0203H22.716V27.364Z" fill="white"/>
<path d="M32.6232 30.6154C34.3923 30.5972 36.0822 29.8801 37.3231 28.6209C38.564 27.3619 39.255 25.6632 39.2451 23.8966V4.23801H35.9201V23.8966C35.9337 24.3393 35.8582 24.7802 35.6979 25.1932C35.5377 25.6063 35.296 25.983 34.9873 26.301C34.6783 26.6189 34.3088 26.8718 33.9003 27.0445C33.4918 27.2172 33.0528 27.3061 32.6092 27.3061C32.1657 27.3061 31.7266 27.2172 31.318 27.0445C30.9095 26.8718 30.54 26.6189 30.2312 26.301C29.9224 25.983 29.6807 25.6063 29.5205 25.1932C29.3602 24.7802 29.2846 24.3393 29.2984 23.8966V4.23801H25.9734V23.8966C25.9633 25.6681 26.6582 27.3709 27.9053 28.6309C29.1523 29.8908 30.8494 30.6046 32.6232 30.6154Z" fill="white"/>
<path d="M62.8798 3.65976C60.9425 3.66225 59.0855 4.43271 57.7168 5.80181C56.3481 7.17093 55.5798 9.02667 55.5806 10.9612V30.0215H60.2261V10.9612C60.2139 10.6066 60.2733 10.2532 60.4007 9.92194C60.5282 9.59071 60.7212 9.28851 60.968 9.03332C61.2149 8.77814 61.5107 8.57519 61.8378 8.43659C62.1649 8.29798 62.5167 8.22656 62.872 8.22656C63.2273 8.22656 63.579 8.29798 63.9061 8.43659C64.2332 8.57519 64.5291 8.77814 64.776 9.03332C65.0228 9.28851 65.2158 9.59071 65.3433 9.92194C65.4707 10.2532 65.5301 10.6066 65.5178 10.9612V30.0215H70.1728V10.9612C70.1736 9.02776 69.4062 7.17296 68.0389 5.80403C66.6715 4.4351 64.816 3.6639 62.8798 3.65976Z" fill="white"/>
<path d="M4.1625 43.7514H2.07341L3.13678 41.7467L4.1625 43.7514ZM2.87014 40.782L0 46.2604H0.752825L1.72522 44.4124H4.51067L5.47994 46.2604H6.23277L3.36575 40.782H2.87014Z" fill="white"/>
<path d="M43.9524 43.7609H41.8695L42.9142 41.7624L43.9524 43.7609ZM42.66 40.7977L39.7993 46.2636H40.5522L41.5183 44.4217H44.2974L45.2635 46.2636H46.0164L43.1557 40.7977H42.66Z" fill="white"/>
<path d="M64.3292 43.5353C64.3292 45.0074 63.7834 45.6058 62.4472 45.6058H60.5651V41.4586H62.4472C63.7803 41.4586 64.3292 42.06 64.3292 43.5322V43.5353ZM62.4472 40.7977H59.8812V46.2636H62.4472C64.1661 46.2636 65.0004 45.3708 65.0004 43.5322C65.0004 41.6935 64.1661 40.7977 62.4472 40.7977Z" fill="white"/>
<path d="M103.018 40.7977L100.754 45.258L98.5515 40.7977H97.965L97.3345 46.2636H98.0057L98.4856 42.1727L100.509 46.2636H100.979L103.072 42.1383L103.558 46.2636H104.232L103.599 40.7977H103.018Z" fill="white"/>
<path d="M121.923 40.7871L120.549 43.4057L118.877 40.7871H118.096L120.195 44.0761L119.047 46.253H119.79L122.66 40.7871H121.923Z" fill="white"/>
<path d="M80.3925 43.8487L83.4696 43.8173V43.1909L80.3987 43.2222C80.2771 43.2294 80.1553 43.2117 80.0407 43.1702C79.9261 43.1286 79.8213 43.0642 79.7326 42.9807C79.6439 42.8973 79.5733 42.7966 79.525 42.6849C79.4768 42.5732 79.4518 42.4527 79.4518 42.3311C79.4518 42.2094 79.4768 42.0889 79.525 41.9772C79.5733 41.8655 79.6439 41.7649 79.7326 41.6814C79.8213 41.598 79.9261 41.5335 80.0407 41.4919C80.1553 41.4505 80.2771 41.4327 80.3987 41.44H83.4727V40.8134H80.4019C80.0834 40.8128 79.7729 40.9121 79.5141 41.0973C79.2555 41.2826 79.0615 41.5444 78.9599 41.8456C78.8583 42.1469 78.8541 42.4725 78.9479 42.7763C79.0417 43.0802 79.2289 43.3468 79.4827 43.5386C79.2289 43.7304 79.0417 43.997 78.9479 44.3009C78.8541 44.6047 78.8583 44.9302 78.9599 45.2316C79.0615 45.5328 79.2555 45.7947 79.5141 45.9799C79.7729 46.1651 80.0834 46.2644 80.4019 46.2637L83.4759 46.2481V45.6216L80.405 45.6372C80.1679 45.6372 79.9406 45.5431 79.7729 45.3759C79.6052 45.2084 79.511 44.9812 79.511 44.7445C79.511 44.5078 79.6052 44.2807 79.7729 44.1133C79.9406 43.9459 80.1679 43.8518 80.405 43.8518" fill="white"/>
<path d="M25.2231 44.4752C25.0317 45.3085 24.3667 45.6813 23.0618 45.6813C21.3774 45.6813 20.7815 45.1143 20.7815 43.523C20.7815 41.9318 21.3774 41.3649 23.0618 41.3649C24.3542 41.3649 25.0161 41.7345 25.2042 42.5677L25.2231 42.6428H25.9006L25.8818 42.5302C25.6622 41.2991 24.74 40.6978 23.0587 40.6978C21.0104 40.6978 20.0945 41.5685 20.0945 43.5168C20.0945 45.4651 21.0104 46.3359 23.0587 46.3359C24.1346 46.3359 24.8906 46.1009 25.3705 45.6186C25.6646 45.3133 25.8547 44.923 25.9132 44.5035L25.932 44.3907H25.2387L25.2231 44.4752Z" fill="white"/>
</svg>
